<svg xmlns="http://www.w3.org/2000/svg" viewBox="0 0 512 512">
  <defs>
    <linearGradient id="bg" x1="0%" y1="0%" x2="100%" y2="100%">
      <stop offset="0%" style="stop-color:#6C7BD0"/>
      <stop offset="100%" style="stop-color:#4A5AB0"/>
    </linearGradient>
    <linearGradient id="accent" x1="0%" y1="0%" x2="100%" y2="100%">
      <stop offset="0%" style="stop-color:#26A69A"/>
      <stop offset="100%" style="stop-color:#00897B"/>
    </linearGradient>
  </defs>
  <!-- Background -->
  <rect width="512" height="512" rx="108" fill="url(#bg)"/>
  <!-- Left figure (person silhouette, slightly behind) -->
  <g opacity="0.85">
    <circle cx="200" cy="180" r="52" fill="white"/>
    <path d="M200 244c-60 0-108 36-108 80v24c0 12 10 22 22 22h172c12 0 22-10 22-22v-24c0-44-48-80-108-80z" fill="white"/>
  </g>
  <!-- Right figure (person silhouette, in front) -->
  <g>
    <circle cx="312" cy="180" r="52" fill="white"/>
    <path d="M312 244c-60 0-108 36-108 80v24c0 12 10 22 22 22h172c12 0 22-10 22-22v-24c0-44-48-80-108-80z" fill="white"/>
  </g>
  <!-- Connection accent arc between the two figures -->
  <path d="M220 400c20-60 52-60 72 0" stroke="#26A69A" stroke-width="6" fill="none" stroke-linecap="round" opacity="0.9"/>
</svg>
